<?xml version="1.0" standalone="no"?>
<!DOCTYPE svg PUBLIC "-//W3C//DTD SVG 20010904//EN"
 "http://www.w3.org/TR/2001/REC-SVG-20010904/DTD/svg10.dtd">
<svg version="1.0" xmlns="http://www.w3.org/2000/svg"
 width="1118.000000pt" height="1118.000000pt" viewBox="0 0 1118.000000 1118.000000"
 preserveAspectRatio="xMidYMid meet">
<metadata>
Created by potrace 1.14, written by Peter Selinger 2001-2017
</metadata>
<g transform="translate(0.000000,1118.000000) scale(0.100000,-0.100000)"
fill="#000000" stroke="none">
<path d="M5805 10152 c-3 -14 -9 -42 -11 -62 -7 -50 -12 -81 -18 -110 -3 -14
-13 -61 -22 -105 -14 -71 -28 -123 -67 -257 -6 -21 -15 -38 -20 -38 -4 0 -6
-4 -3 -9 5 -7 -33 -72 -66 -112 -20 -24 -74 -49 -107 -49 -35 0 -132 42 -151
65 -7 8 -17 15 -23 15 -12 0 -211 201 -272 274 -22 26 -50 60 -63 75 -13 14
-37 45 -54 69 -17 23 -35 42 -40 42 -8 0 -5 -8 57 -170 21 -52 39 -103 40
-112 2 -9 9 -27 16 -40 7 -13 12 -25 12 -28 0 -3 1 -9 3 -15 9 -27 35 -125 39
-144 2 -11 6 -24 8 -29 7 -11 21 -133 19 -167 -1 -16 -9 -50 -18 -74 -13 -35
-25 -47 -60 -62 -68 -31 -142 -28 -298 12 -114 29 -311 97 -405 140 -51 24
-84 23 -59 -1 8 -8 30 -26 49 -40 18 -14 44 -36 56 -49 13 -13 23 -21 23 -17
0 4 14 -8 30 -26 17 -18 30 -30 30 -27 0 2 37 -30 82 -73 45 -43 85 -78 90
-78 4 0 8 -5 8 -11 0 -6 17 -28 38 -49 98 -101 136 -222 89 -287 -12 -17 -42
-43 -67 -59 -25 -15 -48 -33 -52 -39 -4 -5 -8 -6 -8 -2 0 4 -9 3 -21 -3 -46
-25 -172 -60 -339 -94 -135 -27 -160 -32 -227 -42 -24 -3 -42 -11 -40 -17 3
-10 11 -12 81 -22 54 -7 78 -12 191 -35 55 -12 110 -23 123 -26 116 -23 283
-94 334 -142 75 -70 56 -174 -57 -308 -62 -75 -208 -210 -322 -301 -66 -53
-107 -93 -100 -99 3 -4 13 -1 22 6 8 7 15 10 15 7 0 -3 24 4 53 17 28 13 81
33 117 45 36 13 79 29 97 37 17 8 39 14 50 14 10 0 28 7 39 15 12 8 23 12 26
10 2 -3 20 0 39 6 19 5 45 12 59 15 14 3 34 8 45 11 44 13 170 11 200 -4 56
-28 73 -52 81 -112 5 -31 7 -58 7 -61 -1 -3 -4 -27 -8 -55 -6 -54 -13 -90 -15
-90 -1 0 -3 -7 -5 -15 -6 -30 -48 -176 -60 -210 -7 -19 -16 -43 -19 -53 -3 -9
-6 -19 -7 -22 -1 -2 -21 -53 -44 -112 -24 -59 -41 -110 -39 -113 3 -2 16 9 29
25 80 100 134 163 158 184 9 8 17 19 17 23 0 10 179 188 214 213 15 11 34 25
40 31 23 22 95 54 128 58 18 2 46 -1 63 -7 32 -10 95 -64 95 -81 0 -5 6 -17
14 -25 41 -47 153 -487 161 -635 0 -5 5 -11 12 -13 7 -3 15 16 22 49 5 29 21
114 35 188 15 74 31 152 36 172 6 21 10 39 10 40 -3 8 64 185 78 207 50 77
104 112 161 105 44 -5 101 -26 101 -36 0 -4 5 -8 11 -8 6 0 16 -6 24 -12 7 -7
28 -24 46 -38 36 -27 209 -197 209 -205 0 -3 8 -13 18 -24 40 -43 80 -89 112
-131 48 -62 69 -84 75 -79 2 3 -2 17 -10 32 -8 15 -12 27 -9 27 3 0 -1 12 -9
28 -9 15 -22 47 -31 72 -8 25 -21 59 -27 75 -7 17 -13 32 -14 35 -2 11 -27 86
-32 100 -3 8 -8 26 -10 39 -2 14 -8 32 -12 40 -8 14 -19 61 -37 161 -18 96 4
183 53 216 43 29 103 37 189 25 64 -9 104 -19 224 -53 19 -5 45 -12 58 -15 12
-3 25 -9 28 -14 3 -5 14 -9 25 -9 10 0 27 -4 37 -9 22 -12 185 -76 194 -76 3
0 10 -3 14 -7 4 -5 14 -8 23 -8 16 0 12 5 -91 92 -83 71 -93 80 -163 141 -195
173 -277 291 -270 390 3 44 8 55 42 86 43 41 129 85 207 107 28 8 58 18 66 21
8 3 24 8 35 10 11 2 47 10 80 18 33 8 76 17 95 20 19 3 53 10 75 15 22 5 60
11 85 15 75 9 84 11 87 22 2 6 -17 14 -42 18 -26 3 -57 8 -68 11 -12 2 -60 11
-107 20 -157 30 -241 50 -325 80 -93 33 -112 42 -165 83 -25 19 -46 36 -48 37
-2 1 -9 24 -16 52 -13 49 -13 52 19 114 32 64 56 97 107 149 15 15 24 30 21
33 -4 3 -2 6 4 6 5 0 42 30 81 68 39 37 87 81 108 97 20 17 48 40 63 53 14 13
47 39 74 59 26 21 47 41 47 45 0 14 -37 9 -50 -7 -7 -8 -16 -13 -20 -10 -5 3
-30 -4 -57 -16 -112 -49 -341 -122 -417 -134 -21 -4 -48 -9 -60 -11 -49 -10
-124 -5 -164 11 -71 29 -95 99 -79 228 8 58 42 193 67 265 10 28 15 52 12 52
-4 0 -2 4 3 8 6 4 21 39 34 77 13 39 29 81 34 95 6 14 11 27 12 30 1 3 7 18
14 34 6 16 10 34 8 39 -4 12 -3 12 -97 -103 -60 -74 -161 -187 -211 -238 -169
-171 -309 -223 -385 -144 -33 34 -75 96 -78 114 -1 7 -5 18 -9 25 -7 11 -45
129 -53 164 -5 22 -6 27 -30 129 -10 41 -17 79 -16 83 1 5 -2 25 -7 45 -6 20
-11 52 -13 70 -1 19 -5 35 -9 38 -3 2 -5 15 -4 28 4 35 -21 41 -30 8z m225
-845 c8 -2 29 -7 45 -11 71 -18 221 -80 235 -97 3 -3 16 -12 30 -19 43 -23
152 -111 194 -158 23 -25 49 -54 59 -64 9 -10 17 -22 17 -26 0 -5 9 -17 20
-27 11 -10 20 -24 20 -32 0 -7 5 -13 11 -13 5 0 8 -4 4 -9 -3 -5 -1 -12 5 -16
19 -12 108 -225 93 -225 -3 0 -1 -6 5 -12 6 -7 10 -16 10 -21 0 -4 3 -29 7
-55 19 -119 21 -166 12 -263 -11 -119 -39 -222 -89 -329 -16 -36 -37 -73 -45
-82 -9 -10 -13 -18 -9 -18 4 0 -3 -13 -16 -29 -12 -16 -33 -42 -45 -58 -43
-56 -119 -130 -178 -174 -33 -24 -62 -46 -65 -50 -9 -10 -175 -88 -202 -94
-16 -4 -28 -10 -28 -14 0 -4 -8 -7 -17 -8 -10 -1 -31 -4 -48 -8 -16 -4 -36 -8
-42 -8 -7 0 -13 -3 -13 -6 0 -11 -267 -17 -310 -8 -93 21 -137 30 -152 30 -10
1 -18 4 -18 8 0 7 -53 22 -66 19 -4 -1 -10 2 -13 7 -3 4 -37 24 -76 43 -38 19
-72 38 -75 41 -3 3 -23 17 -45 31 -43 27 -185 162 -185 175 0 5 -9 16 -19 25
-11 9 -32 38 -47 65 -15 26 -31 50 -34 53 -15 13 -70 154 -89 230 -19 79 -34
182 -34 240 0 53 13 177 22 208 5 18 10 35 10 37 0 40 106 289 130 305 4 3 14
16 21 30 14 26 39 55 109 122 74 73 84 81 156 128 17 10 35 23 40 27 17 14
117 60 160 73 22 7 45 16 51 21 6 5 13 6 17 3 3 -3 14 -1 24 4 17 10 61 17
183 31 46 5 220 -9 270 -22z"/>
<path d="M5770 9233 c-120 -11 -242 -43 -325 -84 -63 -31 -123 -66 -139 -81
-8 -7 -29 -24 -47 -38 -136 -104 -270 -323 -304 -496 -24 -123 -24 -283 0
-364 2 -8 6 -26 9 -40 16 -78 89 -230 149 -310 68 -89 197 -209 225 -210 6 0
12 -3 12 -7 0 -5 10 -13 23 -19 12 -6 45 -23 74 -37 28 -15 93 -38 145 -53 81
-24 110 -27 228 -27 139 1 233 18 326 59 21 9 44 18 51 20 7 1 25 11 40 21 15
10 40 25 56 33 15 7 27 17 27 22 0 4 6 8 14 8 17 0 159 142 202 202 28 38 107
183 104 190 -1 2 6 19 14 40 28 67 51 197 50 288 0 41 -9 138 -14 150 -1 3 -2
9 -1 14 2 10 -34 129 -51 166 -26 59 -62 126 -72 132 -6 4 -7 8 -3 8 7 0 -6
19 -68 98 -39 50 -129 132 -145 132 -5 0 -10 4 -10 9 0 11 -136 91 -155 91 -7
0 -15 3 -17 8 -5 12 -121 50 -173 57 -11 1 -31 5 -45 8 -36 8 -139 14 -180 10z"/>
<path d="M3042 10150 c-12 -10 -19 -20 -16 -23 9 -9 -45 -59 -56 -52 -9 5 -15
-15 -11 -37 0 -5 -5 -8 -13 -8 -9 0 -16 -12 -18 -27 -2 -19 -12 -32 -31 -41
-18 -9 -26 -19 -23 -28 3 -8 1 -14 -5 -14 -6 0 -7 -4 -4 -10 3 -5 0 -10 -8
-10 -8 0 -18 -15 -23 -32 -7 -23 -17 -34 -32 -36 -16 -2 -22 -10 -22 -28 0
-13 -5 -24 -11 -24 -6 0 -9 -6 -6 -14 3 -8 -1 -17 -9 -20 -8 -3 -14 -12 -14
-20 0 -7 -9 -16 -20 -19 -11 -3 -20 -13 -20 -24 0 -24 -45 -111 -71 -140 -12
-12 -19 -29 -16 -37 3 -8 -3 -22 -13 -31 -10 -9 -22 -31 -26 -49 -3 -17 -11
-37 -16 -43 -6 -7 -8 -19 -5 -27 4 -9 -2 -17 -14 -21 -14 -5 -19 -15 -19 -41
0 -24 -5 -34 -15 -34 -11 0 -15 -12 -15 -45 0 -25 -4 -45 -9 -45 -5 0 -12 -21
-16 -46 -3 -25 -12 -47 -19 -50 -8 -3 -16 -30 -20 -65 -5 -44 -11 -59 -22 -59
-13 0 -15 -10 -12 -50 1 -28 0 -50 -4 -50 -3 0 -10 -30 -14 -67 -4 -37 -12
-73 -19 -79 -7 -8 -15 -64 -19 -146 -4 -74 -12 -136 -18 -139 -6 -4 -7 -12 -4
-18 4 -6 2 -11 -3 -11 -8 0 -11 -79 -11 -244 0 -200 3 -245 14 -249 11 -4 16
-43 21 -166 6 -121 11 -161 21 -165 8 -3 14 -19 14 -36 0 -23 -4 -30 -20 -30
-16 0 -20 -7 -20 -30 0 -23 5 -30 19 -30 11 0 22 8 24 18 3 9 5 2 6 -15 0 -18
4 -33 9 -33 4 0 5 -22 4 -50 -3 -40 -1 -50 11 -50 12 0 17 -17 22 -65 4 -35
14 -70 21 -76 8 -6 14 -18 14 -25 0 -8 4 -14 10 -14 5 0 7 -6 5 -13 -5 -10 34
-117 80 -222 7 -16 34 -84 60 -150 48 -121 74 -177 87 -183 4 -2 5 -9 2 -17
-3 -7 4 -19 16 -25 11 -6 18 -15 15 -21 -4 -5 -2 -9 4 -9 5 0 12 -13 16 -29 3
-16 13 -35 21 -42 17 -14 18 -36 2 -41 -7 -3 -9 -14 -5 -30 5 -18 15 -27 37
-31 16 -4 30 -11 30 -17 0 -6 7 -18 15 -26 8 -9 15 -24 15 -35 0 -10 7 -19 15
-19 8 0 15 -7 15 -15 0 -8 4 -15 8 -15 5 0 17 -20 28 -45 10 -25 23 -45 29
-45 11 -1 55 -82 55 -103 0 -7 11 -20 24 -30 30 -23 87 -102 79 -111 -3 -3 1
-6 10 -6 9 0 17 -7 17 -15 0 -8 4 -15 9 -15 11 0 100 -110 100 -123 0 -4 16
-22 36 -39 27 -24 35 -40 35 -64 0 -43 18 -81 41 -87 10 -3 23 -16 28 -30 5
-14 15 -28 20 -32 6 -3 11 -15 11 -26 0 -11 7 -22 15 -25 8 -4 15 -12 15 -20
0 -8 6 -14 13 -14 8 0 22 -18 33 -40 10 -22 26 -42 35 -45 10 -4 15 -13 12
-24 -2 -9 3 -23 11 -30 9 -8 16 -20 16 -27 0 -8 5 -14 10 -14 6 0 10 -6 10
-14 0 -8 7 -16 15 -20 8 -3 15 -12 15 -20 0 -7 7 -16 15 -20 8 -3 15 -14 15
-25 0 -11 5 -23 10 -26 6 -3 10 -14 10 -25 0 -10 7 -20 15 -24 8 -3 15 -15 15
-26 0 -11 7 -20 15 -20 8 0 17 -11 21 -25 3 -14 11 -25 18 -25 6 0 19 -24 28
-52 8 -29 20 -52 26 -51 6 1 13 -15 17 -37 4 -25 12 -40 21 -40 9 0 14 -11 14
-30 0 -18 10 -39 25 -54 14 -14 25 -37 25 -51 0 -14 3 -25 8 -25 10 0 42 -75
42 -100 0 -11 4 -20 10 -20 5 0 7 -7 4 -15 -4 -8 1 -17 10 -21 9 -3 16 -14 16
-24 0 -11 5 -22 10 -25 6 -3 10 -15 10 -26 0 -10 4 -19 9 -19 5 0 11 -22 15
-50 4 -27 11 -50 16 -50 6 0 10 -15 10 -34 0 -19 6 -36 14 -39 7 -3 16 -28 20
-58 4 -30 11 -58 15 -64 10 -13 22 -71 21 -107 0 -18 5 -28 14 -28 8 0 17 -8
20 -17 9 -30 26 -185 26 -235 0 -32 4 -48 13 -48 8 0 11 -14 8 -46 -2 -25 2
-51 8 -57 15 -15 16 -637 1 -637 -5 0 -10 -22 -10 -50 0 -27 -4 -50 -8 -50 -5
0 -12 -49 -16 -110 -7 -128 -11 -140 -40 -140 -15 0 -17 -3 -8 -9 11 -7 10
-17 -3 -59 -10 -29 -15 -65 -13 -82 3 -19 0 -30 -8 -30 -7 0 -15 -23 -19 -61
-4 -37 -12 -63 -21 -66 -8 -3 -14 -18 -14 -33 0 -16 -4 -31 -9 -34 -5 -3 -12
-26 -15 -51 -4 -24 -11 -47 -17 -50 -5 -4 -9 -15 -9 -26 0 -10 -4 -19 -10 -19
-5 0 -10 -11 -10 -25 0 -14 -7 -28 -15 -31 -8 -4 -18 -24 -21 -46 -4 -21 -17
-54 -29 -73 -13 -18 -26 -42 -30 -54 -3 -12 -10 -21 -13 -21 -4 0 -14 -20 -21
-45 -7 -25 -20 -49 -28 -54 -8 -4 -13 -17 -11 -27 2 -11 -6 -28 -18 -40 -12
-12 -25 -35 -29 -53 -4 -18 -15 -37 -26 -44 -10 -6 -19 -19 -19 -29 0 -26 -11
-48 -25 -48 -14 0 -25 -22 -25 -51 0 -10 -6 -19 -14 -19 -8 0 -18 -12 -24 -27
-5 -16 -19 -39 -31 -52 -11 -13 -21 -28 -21 -33 0 -9 -11 -23 -42 -59 -10 -10
-18 -23 -18 -29 0 -5 -8 -19 -17 -29 -31 -34 -43 -50 -43 -58 -1 -13 -37 -53
-48 -53 -6 0 -13 -13 -17 -30 -8 -35 -19 -43 -60 -44 -28 -1 -30 -4 -31 -40 0
-25 -7 -43 -18 -52 -10 -7 -15 -17 -12 -23 4 -6 -5 -13 -19 -17 -14 -3 -25
-12 -25 -20 0 -8 -17 -27 -39 -42 -31 -21 -40 -35 -44 -66 -8 -57 -1 -68 42
-60 47 7 94 25 103 38 5 7 8 3 8 -7 0 -11 6 -17 13 -14 6 2 12 12 12 23 0 14
8 20 30 22 16 2 33 8 36 14 3 5 26 12 50 15 27 4 52 15 65 29 12 12 38 26 58
29 20 4 34 11 31 15 -3 4 13 10 36 14 22 3 42 13 45 21 4 8 15 15 25 15 10 0
19 5 19 10 0 6 6 10 13 10 7 0 32 9 55 20 22 11 53 20 67 20 18 0 25 5 25 20
0 13 9 22 28 26 15 3 41 12 59 20 17 8 45 17 62 20 21 4 31 12 31 24 0 13 13
21 45 29 25 6 45 16 45 21 0 6 11 10 25 10 14 0 25 5 25 10 0 6 9 10 20 10 11
0 20 7 20 15 0 9 12 18 30 22 17 3 30 9 30 14 0 5 5 9 10 9 6 0 20 9 32 20 12
11 30 20 40 20 11 0 17 4 13 9 -3 6 10 13 30 17 20 3 35 12 35 20 0 8 5 14 11
14 6 0 17 7 25 15 9 8 24 15 35 15 10 0 19 4 19 9 0 5 14 12 30 16 17 4 30 11
30 17 0 17 25 35 58 43 18 3 32 11 32 16 0 5 7 9 15 9 8 0 15 5 15 10 0 6 9
10 20 10 13 0 18 5 14 14 -4 11 6 18 35 26 23 6 41 17 41 25 0 7 14 16 30 20
17 4 30 13 30 20 0 18 32 27 65 19 24 -6 27 -4 20 15 -5 17 1 25 29 42 20 12
36 25 36 30 0 5 8 9 19 9 10 0 21 9 24 20 3 11 14 20 25 20 11 0 25 7 32 15 7
8 20 15 30 15 9 0 23 11 30 25 7 13 21 27 31 30 9 3 19 15 22 25 3 13 14 20
29 20 13 0 30 9 38 20 8 11 22 20 32 20 10 0 18 6 18 14 0 8 9 17 19 21 11 3
22 12 25 20 3 8 15 15 26 15 11 0 20 7 20 15 0 9 7 18 15 21 8 4 15 12 15 20
0 7 18 19 40 25 22 7 40 18 40 26 0 7 11 18 25 23 14 5 24 15 23 21 -4 15 39
28 70 22 17 -4 22 -1 22 16 0 23 15 29 23 9 3 -8 6 -6 6 5 1 10 -6 17 -16 17
-26 1 32 50 58 50 11 0 19 7 19 18 1 23 24 52 42 52 9 0 28 16 44 35 15 19 34
35 41 35 7 0 13 7 13 15 0 9 9 15 25 15 20 0 25 5 25 25 0 15 7 28 18 32 9 4
36 26 60 50 24 24 50 43 57 43 8 0 17 9 20 20 3 11 13 20 21 20 8 0 14 6 14
14 0 8 18 23 41 32 30 14 39 23 36 36 -4 13 2 20 20 24 28 7 63 38 63 54 0 6
5 10 10 10 6 0 10 7 10 15 0 9 9 15 25 15 15 0 25 5 24 13 -3 23 13 57 27 57
8 0 14 7 14 15 0 8 7 15 15 15 8 0 20 9 27 20 7 11 18 20 25 20 7 0 13 7 13
15 0 8 5 15 10 15 6 0 10 7 10 15 0 9 8 19 18 22 22 9 42 29 42 42 0 6 6 11
14 11 7 0 16 9 19 20 3 11 12 20 21 20 10 0 16 8 16 21 0 13 8 23 21 26 12 4
18 11 15 20 -3 8 3 17 17 22 12 5 31 21 42 35 11 14 26 26 33 26 7 0 11 4 8 8
-3 5 6 20 20 35 13 14 24 30 24 36 0 5 14 21 30 34 17 14 30 29 30 34 0 4 18
25 40 46 22 20 40 42 40 47 0 6 11 15 25 22 13 6 22 15 19 20 -3 5 3 17 15 27
11 10 18 20 16 23 -3 2 6 15 20 28 14 13 25 29 25 37 0 7 9 13 20 13 11 0 20
6 20 14 0 8 7 17 16 20 8 3 13 10 10 14 -6 11 22 52 35 52 16 0 39 27 39 44 0
8 20 36 45 62 25 25 45 52 45 60 0 8 16 24 35 36 21 14 45 44 60 75 14 28 32
53 40 56 7 3 15 18 17 34 2 24 8 28 36 31 31 3 33 5 27 34 -5 23 -2 34 14 49
12 11 21 24 21 29 0 6 7 10 16 10 12 0 15 7 12 25 -4 20 1 27 23 37 22 10 29
20 29 41 0 20 6 30 20 34 11 3 20 14 20 24 0 11 7 22 15 25 8 4 15 15 15 25 0
10 5 19 10 19 6 0 10 6 10 13 0 6 13 26 28 42 16 17 27 36 25 42 -3 7 12 29
32 50 19 20 38 47 41 60 4 13 10 23 15 23 5 0 9 9 9 20 0 11 9 25 20 32 11 7
20 18 20 25 0 7 5 13 10 13 6 0 10 9 10 20 0 11 7 23 15 26 8 4 15 15 15 25 0
10 7 19 15 19 8 0 15 9 15 19 0 11 5 23 10 26 6 3 10 15 10 26 0 11 7 19 16
19 12 0 15 6 11 21 -4 15 1 23 19 31 13 6 24 19 24 30 0 10 5 18 10 18 6 0 10
8 10 18 0 10 6 24 12 30 10 10 10 15 -2 22 -12 8 -10 10 9 10 16 0 21 4 18 14
-3 8 3 22 13 31 10 9 20 29 24 46 3 16 12 29 20 29 8 0 18 9 21 20 3 11 10 20
14 20 5 0 9 12 9 27 0 15 5 29 11 31 6 2 11 14 11 28 0 14 10 30 26 40 15 10
24 24 21 33 -2 9 2 22 10 29 7 7 13 24 13 37 0 14 5 25 10 25 6 0 10 11 10 25
0 17 8 29 23 36 16 7 29 31 46 85 13 41 31 78 39 83 9 5 12 15 9 25 -4 10 -1
16 8 16 9 0 17 15 21 40 4 22 10 40 15 40 5 0 9 11 9 24 0 16 7 27 20 31 13 4
20 15 20 31 0 13 4 32 9 42 5 9 15 39 22 66 8 33 18 50 31 54 13 3 18 11 15
23 -3 10 1 20 8 23 8 3 11 13 8 25 -3 12 -1 21 5 21 5 0 13 20 16 45 5 29 12
45 22 45 9 0 14 11 14 35 0 19 4 35 9 35 5 0 13 15 16 33 4 17 11 37 15 42 11
15 24 67 21 88 -1 9 2 17 8 17 6 0 16 20 22 45 6 25 15 45 20 45 4 0 7 8 6 18
-1 23 35 122 45 122 4 0 8 11 8 25 0 13 9 47 20 75 11 28 20 61 20 73 0 12 11
43 25 69 14 26 22 53 19 61 -3 8 1 17 10 20 9 4 17 28 21 72 4 36 13 72 20 79
10 10 35 125 35 160 0 3 6 6 14 6 10 0 15 22 20 81 5 53 12 82 21 85 9 4 16
32 20 80 4 41 12 74 17 74 5 0 8 21 7 47 -2 30 1 48 9 51 7 2 12 21 12 42 0
21 5 42 10 45 6 3 10 22 10 41 0 19 4 34 9 34 5 0 12 60 16 133 4 72 11 135
16 138 12 7 31 127 33 207 0 34 4 62 9 62 4 0 7 36 7 80 0 47 4 80 10 80 6 0
10 47 10 120 0 73 4 120 10 120 7 0 10 160 10 460 0 300 -3 460 -10 460 -6 0
-10 32 -10 75 0 43 -4 75 -10 75 -6 0 -10 35 -10 85 l0 85 -35 0 -35 0 0 -64
c0 -36 -5 -68 -11 -72 -6 -3 -9 -19 -7 -35 3 -21 0 -30 -12 -34 -14 -4 -18
-24 -24 -97 -3 -51 -10 -94 -15 -97 -4 -3 -11 -35 -14 -70 -5 -42 -13 -68 -24
-76 -10 -7 -14 -20 -11 -33 3 -12 0 -26 -7 -32 -7 -6 -16 -42 -19 -80 -4 -39
-11 -70 -17 -70 -5 0 -9 -29 -9 -65 0 -55 -3 -65 -17 -65 -15 0 -16 -2 -3 -10
13 -8 13 -10 -2 -10 -19 0 -22 -9 -38 -108 -7 -45 -18 -75 -27 -81 -11 -6 -14
-18 -11 -39 3 -21 0 -33 -10 -37 -9 -3 -12 -13 -8 -30 4 -15 1 -27 -7 -32 -14
-9 -37 -77 -37 -110 0 -13 -8 -23 -21 -26 -17 -5 -20 -12 -18 -41 2 -22 -3
-41 -14 -54 -9 -10 -17 -26 -17 -35 0 -43 -25 -107 -41 -107 -13 0 -19 -13
-24 -59 -4 -37 -12 -62 -21 -65 -8 -3 -14 -17 -14 -31 0 -14 -5 -25 -11 -25
-6 0 -9 -7 -6 -14 4 -9 -2 -17 -13 -21 -12 -4 -22 -19 -26 -41 -3 -19 -10 -34
-15 -34 -5 0 -9 -9 -9 -20 0 -24 -39 -100 -51 -100 -5 0 -9 -7 -9 -15 0 -14
-30 -85 -40 -95 -3 -3 -11 -17 -17 -32 -7 -16 -17 -28 -23 -28 -5 0 -10 -8
-10 -17 0 -10 -11 -31 -25 -47 -14 -16 -25 -35 -25 -42 0 -8 -9 -19 -20 -26
-11 -7 -20 -21 -20 -30 0 -10 -9 -27 -19 -37 -10 -10 -22 -29 -26 -40 -3 -12
-10 -19 -15 -16 -11 7 -30 -26 -30 -52 -1 -10 -14 -29 -30 -43 -17 -13 -30
-29 -30 -35 0 -5 -12 -21 -27 -35 -14 -13 -30 -37 -35 -52 -6 -16 -16 -28 -23
-28 -7 0 -21 -12 -30 -27 -22 -34 -63 -73 -76 -73 -5 0 -9 -9 -9 -20 0 -11 -7
-20 -15 -20 -8 0 -15 -6 -15 -13 0 -7 -9 -19 -20 -27 -12 -8 -32 -32 -47 -52
-16 -24 -34 -38 -47 -38 -19 0 -56 -30 -56 -46 0 -9 -41 -44 -51 -44 -4 0 -11
-9 -14 -21 -4 -11 -20 -25 -36 -31 -16 -5 -29 -14 -29 -19 0 -5 -6 -9 -14 -9
-8 0 -19 -14 -25 -30 -7 -22 -18 -32 -41 -36 -16 -4 -30 -12 -30 -19 0 -13
-21 -25 -45 -25 -8 0 -25 -10 -39 -23 -36 -33 -47 -41 -93 -67 -24 -13 -43
-27 -43 -32 0 -4 -8 -8 -18 -8 -9 0 -23 -9 -29 -20 -7 -10 -28 -22 -48 -26
-20 -3 -35 -12 -35 -20 0 -8 -9 -14 -20 -14 -12 0 -30 -9 -41 -19 -12 -11 -36
-22 -55 -26 -19 -3 -34 -9 -34 -14 0 -4 -14 -6 -31 -3 -24 4 -31 0 -36 -17 -3
-13 -16 -23 -32 -27 -14 -3 -34 -10 -44 -15 -9 -5 -38 -12 -62 -16 -25 -3 -45
-10 -45 -14 0 -5 -13 -9 -30 -9 -19 0 -30 -5 -30 -14 0 -15 -30 -26 -75 -26
-17 0 -36 -5 -42 -11 -6 -6 -41 -14 -77 -16 -37 -3 -69 -10 -72 -14 -3 -5 -23
-9 -46 -9 -32 0 -39 -3 -34 -15 4 -10 -1 -15 -17 -16 -12 0 -58 -5 -102 -10
-250 -31 -875 -52 -875 -29 0 6 -28 10 -68 10 -38 0 -93 4 -123 10 -30 5 -84
12 -121 15 -55 5 -66 9 -61 22 5 13 0 15 -30 11 -24 -2 -38 1 -41 9 -3 7 -21
13 -39 13 -19 0 -47 6 -63 14 -16 8 -55 17 -86 21 -56 6 -58 7 -58 37 0 29 -1
30 -35 24 -47 -9 -76 0 -68 21 5 14 1 15 -26 10 -43 -9 -78 0 -84 22 -3 11
-23 20 -64 29 -32 6 -69 21 -81 32 -12 11 -26 20 -32 20 -5 0 -10 6 -10 14 0
8 -16 16 -41 20 -23 4 -39 9 -36 13 9 9 -18 31 -47 39 -14 3 -26 11 -26 16 0
19 -28 37 -49 31 -15 -4 -21 -1 -21 10 0 10 -11 17 -27 19 -17 2 -32 12 -38
26 -5 12 -18 22 -28 22 -11 0 -21 8 -23 18 -3 9 -23 25 -45 34 -23 10 -38 22
-34 28 3 5 -3 10 -14 10 -11 0 -22 8 -25 18 -3 10 -20 23 -37 29 -17 7 -28 17
-24 22 3 6 -1 11 -9 11 -9 0 -16 5 -16 11 0 12 -25 39 -37 39 -13 0 -63 60
-63 76 0 8 -7 14 -16 14 -17 0 -90 70 -87 82 2 4 -6 12 -17 18 -11 6 -20 17
-20 26 0 8 -11 19 -25 24 -16 6 -23 14 -19 25 4 10 0 15 -15 15 -15 0 -19 4
-14 16 4 10 0 20 -10 26 -10 5 -17 15 -17 22 0 8 -7 16 -15 20 -8 3 -15 15
-15 26 0 13 -7 20 -20 20 -14 0 -22 11 -30 40 -6 22 -15 40 -20 40 -6 0 -10 8
-10 18 0 9 -14 28 -30 41 -18 14 -30 33 -30 46 0 24 -23 55 -41 55 -14 0 -11
38 4 43 6 2 0 8 -15 12 -22 5 -29 16 -38 56 -7 27 -17 49 -23 49 -13 0 -37 45
-37 69 0 9 -7 25 -15 35 -8 11 -15 32 -15 47 0 15 -7 29 -15 33 -8 3 -15 12
-15 21 0 8 -4 15 -8 15 -5 0 -7 14 -4 30 3 18 0 30 -7 30 -6 0 -11 14 -11 30
0 17 -4 30 -10 30 -5 0 -10 9 -10 20 0 11 -4 20 -9 20 -4 0 -11 19 -14 42 -3
23 -12 45 -20 50 -11 5 -17 34 -22 93 -5 58 -11 85 -20 85 -9 0 -16 46 -25
160 -7 88 -17 160 -22 160 -10 0 -9 -13 -15 309 -2 159 0 258 6 264 6 6 7 23
4 38 -3 16 -1 35 4 41 6 7 16 86 23 176 9 111 17 162 25 162 8 0 14 28 19 78
3 42 11 79 16 80 6 2 10 23 10 47 0 50 -22 63 -58 35z"/>
<path d="M1798 2942 c-15 -3 -18 -14 -18 -60 l0 -56 28 45 c16 24 31 53 35 63
6 15 5 17 -7 7 -8 -7 -16 -8 -18 -4 -1 5 -11 7 -20 5z"/>
<path d="M1780 1319 c0 -11 5 -17 10 -14 6 3 10 13 10 21 0 8 -4 14 -10 14 -5
0 -10 -9 -10 -21z"/>
<path d="M1787 553 c-12 -11 -8 -23 8 -23 8 0 15 7 15 15 0 16 -12 20 -23 8z"/>
</g>
</svg>
